<svg width="64" height="64" viewBox="0 0 64 64" fill="none" xmlns="http://www.w3.org/2000/svg">
  <circle cx="32" cy="32" r="30" fill="url(#gradient)" />
  <defs>
    <linearGradient id="gradient" x1="0" y1="0" x2="64" y2="64" gradientUnits="userSpaceOnUse">
      <stop offset="0%" stop-color="#0ea5e9" />
      <stop offset="100%" stop-color="#8b5cf6" />
    </linearGradient>
  </defs>
  <!-- Brain Icon -->
  <path d="M32 12C26 12 21 17 21 23C21 25 21.5 26.8 22.4 28.3C20.4 29.8 19 32.2 19 35C19 37.8 20.4 40.2 22.4 41.7C21.5 43.2 21 45 21 47C21 53 26 58 32 58C38 58 43 53 43 47C43 45 42.5 43.2 41.6 41.7C43.6 40.2 45 37.8 45 35C45 32.2 43.6 29.8 41.6 28.3C42.5 26.8 43 25 43 23C43 17 38 12 32 12Z" fill="white" opacity="0.9"/>
  <circle cx="28" cy="24" r="2" fill="#0ea5e9"/>
  <circle cx="36" cy="24" r="2" fill="#0ea5e9"/>
  <circle cx="26" cy="34" r="2" fill="#8b5cf6"/>
  <circle cx="32" cy="34" r="2" fill="#8b5cf6"/>
  <circle cx="38" cy="34" r="2" fill="#8b5cf6"/>
  <circle cx="28" cy="44" r="2" fill="#0ea5e9"/>
  <circle cx="36" cy="44" r="2" fill="#0ea5e9"/>
</svg>
